<svg width="600" height="247" viewBox="0 0 600 247" fill="none" xmlns="http://www.w3.org/2000/svg">
<g clip-path="url(#clip0_203_536)">
<path d="M0 79.2427V0H600V79C581 68 538 57.0444 494.865 57.0444C390.425 57.0444 348.391 151 212.233 151C103.305 151 25.3579 103.162 0 79.2427Z" fill="#007BC1"/>
<path opacity="0.2" d="M258.135 91.8613C362.575 91.8613 463.841 227.5 600 227.5L600 0L0 35V246.75C126.36 254.212 174.583 91.8613 258.135 91.8613Z" fill="#007BC1"/>
<path opacity="0.5" d="M0 163.414V0H600V107C580.5 92.5 546 68.4536 494.865 68.4536C390.425 68.4536 348.391 189.663 212.233 189.663C103.305 189.663 84.5 128 0 163.414Z" fill="#007BC1"/>
</g>
<defs>
<clipPath id="clip0_203_536">
<rect width="600" height="247" fill="white"/>
</clipPath>
</defs>
</svg>
